<mxfile host="app.diagrams.net" agent="Mozilla/5.0 (Windows NT 10.0; Win64; x64) AppleWebKit/537.36 (KHTML, like Gecko) Chrome/131.0.0.0 Safari/537.36" version="26.0.1">
  <diagram name="Strona-1" id="yV0T3JIf6glD0yWkxZMH">
    <mxGraphModel dx="2462" dy="943" grid="1" gridSize="10" guides="1" tooltips="1" connect="1" arrows="1" fold="1" page="1" pageScale="1" pageWidth="1654" pageHeight="1169" math="0" shadow="0">
      <root>
        <mxCell id="0" />
        <mxCell id="1" parent="0" />
        <mxCell id="FtU6xo26SJPhzobdUnib-26" value="" style="shape=datastore;whiteSpace=wrap;html=1;" vertex="1" parent="1">
          <mxGeometry x="1150" y="520" width="60" height="60" as="geometry" />
        </mxCell>
        <mxCell id="FtU6xo26SJPhzobdUnib-27" value="" style="shape=datastore;whiteSpace=wrap;html=1;" vertex="1" parent="1">
          <mxGeometry x="1150" y="420" width="60" height="60" as="geometry" />
        </mxCell>
        <mxCell id="FtU6xo26SJPhzobdUnib-28" value="" style="shape=datastore;whiteSpace=wrap;html=1;" vertex="1" parent="1">
          <mxGeometry x="1150" y="620" width="60" height="60" as="geometry" />
        </mxCell>
        <mxCell id="FtU6xo26SJPhzobdUnib-29" value="" style="shape=datastore;whiteSpace=wrap;html=1;" vertex="1" parent="1">
          <mxGeometry x="1150" y="320" width="60" height="60" as="geometry" />
        </mxCell>
        <mxCell id="FtU6xo26SJPhzobdUnib-39" style="edgeStyle=orthogonalEdgeStyle;rounded=0;orthogonalLoop=1;jettySize=auto;html=1;entryX=0;entryY=0.5;entryDx=0;entryDy=0;" edge="1" parent="1" source="FtU6xo26SJPhzobdUnib-30" target="FtU6xo26SJPhzobdUnib-29">
          <mxGeometry relative="1" as="geometry" />
        </mxCell>
        <mxCell id="FtU6xo26SJPhzobdUnib-30" value="API USERS" style="rounded=0;whiteSpace=wrap;html=1;fillColor=#fff2cc;strokeColor=#d6b656;" vertex="1" parent="1">
          <mxGeometry x="920" y="320" width="120" height="60" as="geometry" />
        </mxCell>
        <mxCell id="FtU6xo26SJPhzobdUnib-40" style="edgeStyle=orthogonalEdgeStyle;rounded=0;orthogonalLoop=1;jettySize=auto;html=1;entryX=0;entryY=0.5;entryDx=0;entryDy=0;" edge="1" parent="1" source="FtU6xo26SJPhzobdUnib-31" target="FtU6xo26SJPhzobdUnib-27">
          <mxGeometry relative="1" as="geometry" />
        </mxCell>
        <mxCell id="FtU6xo26SJPhzobdUnib-31" value="API CARS" style="rounded=0;whiteSpace=wrap;html=1;fillColor=#fff2cc;strokeColor=#d6b656;" vertex="1" parent="1">
          <mxGeometry x="920" y="420" width="120" height="60" as="geometry" />
        </mxCell>
        <mxCell id="FtU6xo26SJPhzobdUnib-42" style="edgeStyle=orthogonalEdgeStyle;rounded=0;orthogonalLoop=1;jettySize=auto;html=1;entryX=0;entryY=0.5;entryDx=0;entryDy=0;" edge="1" parent="1" source="FtU6xo26SJPhzobdUnib-32" target="FtU6xo26SJPhzobdUnib-26">
          <mxGeometry relative="1" as="geometry" />
        </mxCell>
        <mxCell id="FtU6xo26SJPhzobdUnib-32" value="API WORKSHOPS" style="rounded=0;whiteSpace=wrap;html=1;fillColor=#fff2cc;strokeColor=#d6b656;" vertex="1" parent="1">
          <mxGeometry x="920" y="520" width="120" height="60" as="geometry" />
        </mxCell>
        <mxCell id="FtU6xo26SJPhzobdUnib-44" style="edgeStyle=orthogonalEdgeStyle;rounded=0;orthogonalLoop=1;jettySize=auto;html=1;" edge="1" parent="1" source="FtU6xo26SJPhzobdUnib-33" target="FtU6xo26SJPhzobdUnib-28">
          <mxGeometry relative="1" as="geometry" />
        </mxCell>
        <mxCell id="FtU6xo26SJPhzobdUnib-33" value="API FIXES" style="rounded=0;whiteSpace=wrap;html=1;fillColor=#fff2cc;strokeColor=#d6b656;" vertex="1" parent="1">
          <mxGeometry x="920" y="620" width="120" height="60" as="geometry" />
        </mxCell>
        <mxCell id="FtU6xo26SJPhzobdUnib-35" style="edgeStyle=orthogonalEdgeStyle;rounded=0;orthogonalLoop=1;jettySize=auto;html=1;entryX=0;entryY=0.5;entryDx=0;entryDy=0;" edge="1" parent="1" source="FtU6xo26SJPhzobdUnib-34" target="FtU6xo26SJPhzobdUnib-33">
          <mxGeometry relative="1" as="geometry" />
        </mxCell>
        <mxCell id="FtU6xo26SJPhzobdUnib-36" style="edgeStyle=orthogonalEdgeStyle;rounded=0;orthogonalLoop=1;jettySize=auto;html=1;" edge="1" parent="1" source="FtU6xo26SJPhzobdUnib-34" target="FtU6xo26SJPhzobdUnib-32">
          <mxGeometry relative="1" as="geometry" />
        </mxCell>
        <mxCell id="FtU6xo26SJPhzobdUnib-37" style="edgeStyle=orthogonalEdgeStyle;rounded=0;orthogonalLoop=1;jettySize=auto;html=1;" edge="1" parent="1" source="FtU6xo26SJPhzobdUnib-34" target="FtU6xo26SJPhzobdUnib-31">
          <mxGeometry relative="1" as="geometry" />
        </mxCell>
        <mxCell id="FtU6xo26SJPhzobdUnib-38" style="edgeStyle=orthogonalEdgeStyle;rounded=0;orthogonalLoop=1;jettySize=auto;html=1;entryX=0;entryY=0.5;entryDx=0;entryDy=0;" edge="1" parent="1" source="FtU6xo26SJPhzobdUnib-34" target="FtU6xo26SJPhzobdUnib-30">
          <mxGeometry relative="1" as="geometry" />
        </mxCell>
        <mxCell id="FtU6xo26SJPhzobdUnib-34" value="UI" style="rounded=1;whiteSpace=wrap;html=1;fillColor=#dae8fc;strokeColor=#6c8ebf;" vertex="1" parent="1">
          <mxGeometry x="650" y="470" width="120" height="60" as="geometry" />
        </mxCell>
        <mxCell id="FtU6xo26SJPhzobdUnib-45" value="DB USERS" style="text;html=1;align=center;verticalAlign=middle;whiteSpace=wrap;rounded=0;" vertex="1" parent="1">
          <mxGeometry x="1140" y="380" width="80" height="30" as="geometry" />
        </mxCell>
        <mxCell id="FtU6xo26SJPhzobdUnib-46" value="DB CARS" style="text;html=1;align=center;verticalAlign=middle;whiteSpace=wrap;rounded=0;" vertex="1" parent="1">
          <mxGeometry x="1095" y="480" width="170" height="30" as="geometry" />
        </mxCell>
        <mxCell id="FtU6xo26SJPhzobdUnib-47" value="DB WORKSHOPS" style="text;html=1;align=center;verticalAlign=middle;whiteSpace=wrap;rounded=0;" vertex="1" parent="1">
          <mxGeometry x="1090" y="580" width="180" height="30" as="geometry" />
        </mxCell>
        <mxCell id="FtU6xo26SJPhzobdUnib-48" value="DB FIXES" style="text;html=1;align=center;verticalAlign=middle;whiteSpace=wrap;rounded=0;" vertex="1" parent="1">
          <mxGeometry x="1090" y="680" width="180" height="30" as="geometry" />
        </mxCell>
      </root>
    </mxGraphModel>
  </diagram>
</mxfile>
